<svg width="48" height="48" viewBox="0 0 48 48" fill="none" xmlns="http://www.w3.org/2000/svg">
<circle cx="24" cy="24" r="24" fill="#FD815A"/>
<path d="M13.4675 31.75C13.5425 31.4762 13.3781 31.0956 13.2213 30.8213C13.1726 30.7393 13.1196 30.66 13.0625 30.5837C11.717 28.5433 10.9999 26.1529 11 23.7087C10.9775 16.6931 16.795 11 23.9888 11C30.2625 11 35.5 15.3463 36.7231 21.1156C36.9067 21.971 36.9995 22.8433 37 23.7181C37 30.7438 31.4069 36.5263 24.2131 36.5263C23.0688 36.5263 21.5256 36.2387 20.6838 36.0031C19.8419 35.7675 19.0013 35.455 18.7844 35.3713C18.5624 35.286 18.3266 35.2421 18.0888 35.2419C17.8294 35.241 17.5726 35.2926 17.3338 35.3937L13.0938 36.9237C13.0011 36.9638 12.9029 36.9895 12.8025 37C12.7231 36.9998 12.6445 36.9838 12.5713 36.953C12.4982 36.9222 12.4318 36.8772 12.3761 36.8206C12.3204 36.7639 12.2765 36.6968 12.2469 36.6232C12.2174 36.5495 12.2027 36.4706 12.2038 36.3913C12.209 36.3216 12.2215 36.2527 12.2413 36.1856L13.4675 31.75Z" stroke="white" stroke-width="2" stroke-miterlimit="10" stroke-linecap="round"/>
<path d="M18 26C19.1046 26 20 25.1046 20 24C20 22.8954 19.1046 22 18 22C16.8954 22 16 22.8954 16 24C16 25.1046 16.8954 26 18 26Z" fill="white"/>
<path d="M24 26C25.1046 26 26 25.1046 26 24C26 22.8954 25.1046 22 24 22C22.8954 22 22 22.8954 22 24C22 25.1046 22.8954 26 24 26Z" fill="white"/>
<path d="M30 26C31.1046 26 32 25.1046 32 24C32 22.8954 31.1046 22 30 22C28.8954 22 28 22.8954 28 24C28 25.1046 28.8954 26 30 26Z" fill="white"/>
</svg>
