<svg width="48" height="48" viewBox="0 0 48 48" fill="none" xmlns="http://www.w3.org/2000/svg">
<circle cx="24" cy="24" r="24" fill="#FD815A"/>
<path d="M36.8631 11.3631C36.8525 11.3119 36.8274 11.2647 36.7909 11.2271C36.7544 11.1896 36.7079 11.1633 36.6569 11.1513C33.2581 10.32 25.4069 13.2819 21.1488 17.5369C20.3899 18.2896 19.6979 19.1068 19.0806 19.9794C17.7681 19.8606 16.4556 19.9606 15.3381 20.4481C12.1825 21.8356 11.2644 25.4594 11.0081 27.015C10.9942 27.1003 11.0002 27.1876 11.0255 27.2701C11.0507 27.3527 11.0947 27.4284 11.1539 27.4912C11.2132 27.5541 11.2861 27.6024 11.367 27.6326C11.4479 27.6627 11.5347 27.6738 11.6206 27.665L16.6875 27.1088C16.691 27.4909 16.714 27.8727 16.7563 28.2525C16.7827 28.5151 16.8998 28.7602 17.0875 28.9457L19.0494 30.9075C19.235 31.0953 19.4804 31.2125 19.7431 31.2388C20.1207 31.2809 20.5001 31.3038 20.88 31.3075L20.3244 36.37C20.3157 36.4558 20.3269 36.5425 20.357 36.6233C20.3872 36.7041 20.4355 36.7769 20.4983 36.836C20.561 36.8951 20.6366 36.9391 20.719 36.9644C20.8015 36.9897 20.8886 36.9957 20.9738 36.9819C22.53 36.7319 26.1612 35.8138 27.5406 32.6588C28.0281 31.54 28.1281 30.2344 28.0156 28.9282C28.8908 28.3115 29.7104 27.6195 30.465 26.86C34.7387 22.61 37.6819 14.9313 36.8631 11.3631ZM26.6663 21.3544C26.293 20.9812 26.0387 20.5057 25.9357 19.988C25.8327 19.4703 25.8855 18.9336 26.0875 18.4459C26.2894 17.9583 26.6315 17.5414 27.0704 17.2481C27.5093 16.9549 28.0253 16.7983 28.5531 16.7983C29.081 16.7983 29.597 16.9549 30.0359 17.2481C30.4748 17.5414 30.8168 17.9583 31.0188 18.4459C31.2208 18.9336 31.2736 19.4703 31.1706 19.988C31.0675 20.5057 30.8133 20.9812 30.44 21.3544C30.1924 21.6025 29.8983 21.7994 29.5745 21.9337C29.2507 22.068 28.9037 22.1371 28.5531 22.1371C28.2026 22.1371 27.8555 22.068 27.5317 21.9337C27.208 21.7994 26.9138 21.6025 26.6663 21.3544V21.3544Z" stroke="white" stroke-width="2" stroke-linecap="round" stroke-linejoin="round"/>
<path d="M14.8525 30C14.2294 30.0765 13.6498 30.3589 13.2056 30.8025C12.1044 31.9075 12 36 12 36C12 36 16.095 35.8956 17.1969 34.7931C17.6422 34.3496 17.9252 33.769 18 33.145" stroke="white" stroke-width="2" stroke-linecap="round" stroke-linejoin="round"/>
</svg>
