<svg width="20" height="20" viewBox="0 0 20 20" fill="none" xmlns="http://www.w3.org/2000/svg">
<path d="M13.6457 2.7082C14.6118 2.71109 15.5375 3.09616 16.2207 3.77931C16.9038 4.46246 17.2889 5.38818 17.2918 6.3543V13.6457C17.2889 14.6118 16.9038 15.5375 16.2207 16.2207C15.5375 16.9038 14.6118 17.2889 13.6457 17.2918H6.3543C5.38818 17.2889 4.46246 16.9038 3.77931 16.2207C3.09616 15.5375 2.71109 14.6118 2.7082 13.6457V6.3543C2.71109 5.38818 3.09616 4.46246 3.77931 3.77931C4.46246 3.09616 5.38818 2.71109 6.3543 2.7082H13.6457ZM13.6457 1.25H6.3543C3.54687 1.25 1.25 3.54687 1.25 6.3543V13.6457C1.25 16.4531 3.54687 18.75 6.3543 18.75H13.6457C16.4531 18.75 18.75 16.4531 18.75 13.6457V6.3543C18.75 3.54687 16.4531 1.25 13.6457 1.25Z" fill="#A0A6B1"/>
<path d="M14.7395 6.35437C14.5231 6.35437 14.3117 6.29022 14.1318 6.17004C13.952 6.04985 13.8118 5.87903 13.729 5.67918C13.6462 5.47932 13.6245 5.25941 13.6667 5.04724C13.7089 4.83507 13.8131 4.64019 13.9661 4.48722C14.119 4.33426 14.3139 4.23009 14.5261 4.18789C14.7383 4.14568 14.9582 4.16734 15.158 4.25013C15.3579 4.33291 15.5287 4.4731 15.6489 4.65296C15.7691 4.83283 15.8332 5.0443 15.8332 5.26062C15.8335 5.40434 15.8055 5.5467 15.7506 5.67954C15.6957 5.81238 15.6152 5.93308 15.5136 6.0347C15.4119 6.13633 15.2912 6.21688 15.1584 6.27174C15.0256 6.3266 14.8832 6.35468 14.7395 6.35437Z" fill="#A0A6B1"/>
<path d="M9.99999 7.0832C10.5769 7.0832 11.1408 7.25427 11.6205 7.57477C12.1001 7.89527 12.474 8.35082 12.6948 8.88379C12.9155 9.41676 12.9733 10.0032 12.8607 10.569C12.7482 11.1348 12.4704 11.6546 12.0625 12.0625C11.6546 12.4704 11.1348 12.7482 10.569 12.8608C10.0032 12.9733 9.41676 12.9155 8.88379 12.6948C8.35081 12.474 7.89527 12.1002 7.57477 11.6205C7.25427 11.1408 7.0832 10.5769 7.0832 10C7.08403 9.22667 7.3916 8.48525 7.93842 7.93843C8.48525 7.3916 9.22667 7.08403 9.99999 7.0832ZM9.99999 5.625C9.1347 5.625 8.28884 5.88159 7.56938 6.36232C6.84992 6.84305 6.28916 7.52633 5.95803 8.32576C5.6269 9.12519 5.54026 10.0049 5.70907 10.8535C5.87788 11.7022 6.29455 12.4817 6.90641 13.0936C7.51826 13.7054 8.29781 14.1221 9.14648 14.2909C9.99514 14.4597 10.8748 14.3731 11.6742 14.042C12.4737 13.7108 13.1569 13.1501 13.6377 12.4306C14.1184 11.7112 14.375 10.8653 14.375 10C14.375 8.83968 13.9141 7.72688 13.0936 6.90641C12.2731 6.08594 11.1603 5.625 9.99999 5.625Z" fill="#A0A6B1"/>
</svg>
