<svg width="20" height="20" viewBox="0 0 20 20" fill="none" xmlns="http://www.w3.org/2000/svg">
<path d="M17.784 1.25H2.21602C1.95984 1.2501 1.71419 1.35191 1.53305 1.53305C1.35191 1.71419 1.2501 1.95984 1.25 2.21602V17.784C1.2501 18.0402 1.35191 18.2858 1.53305 18.4669C1.71419 18.6481 1.95984 18.7499 2.21602 18.75H10V11.875H7.9082V9.375H10V7.38281C10 5.12266 11.5676 3.89219 13.5867 3.89219C14.5527 3.89219 15.5918 3.96484 15.8332 3.99688V6.35742H14.2246C13.1262 6.35742 12.9168 6.87695 12.9168 7.64258V9.375H15.534L15.1922 11.875H12.9168V18.75H17.784C18.0402 18.7499 18.2858 18.6481 18.4669 18.4669C18.6481 18.2858 18.7499 18.0402 18.75 17.784V2.21602C18.7499 1.95984 18.6481 1.71419 18.4669 1.53305C18.2858 1.35191 18.0402 1.2501 17.784 1.25Z" fill="#A0A6B1"/>
</svg>
