<svg width="20" height="20" viewBox="0 0 20 20" fill="none" xmlns="http://www.w3.org/2000/svg">
<path d="M19.375 4.27747C18.6717 4.58308 17.9275 4.78442 17.166 4.87513C17.9663 4.40653 18.5681 3.66207 18.8586 2.78138C18.102 3.2238 17.2756 3.53422 16.4148 3.69935C16.0524 3.31948 15.6165 3.01728 15.1336 2.81112C14.6507 2.60497 14.1309 2.49916 13.6059 2.50013C11.4801 2.50013 9.75977 4.19544 9.75977 6.28528C9.75826 6.57597 9.79157 6.8658 9.85898 7.14857C8.33464 7.07711 6.842 6.68825 5.47656 6.00687C4.11111 5.32549 2.90292 4.3666 1.9293 3.19153C1.58772 3.76736 1.40708 4.42436 1.40625 5.09388C1.40625 6.40638 2.09102 7.56653 3.125 8.24622C2.51239 8.23168 1.91234 8.06954 1.37578 7.77357V7.82044C1.37578 9.65638 2.70391 11.1837 4.46172 11.5314C4.13117 11.6195 3.79053 11.6641 3.44844 11.6642C3.20569 11.6646 2.9635 11.6411 2.72539 11.5939C3.21406 13.0978 4.63633 14.1915 6.32109 14.2228C4.9521 15.2778 3.27134 15.8481 1.54297 15.8439C1.23618 15.8434 0.929674 15.8252 0.625 15.7892C2.38327 16.9119 4.42713 17.5058 6.51328 17.5001C13.5977 17.5001 17.468 11.7306 17.468 6.72669C17.468 6.56263 17.4637 6.39857 17.4559 6.23841C18.2071 5.70406 18.857 5.04002 19.375 4.27747Z" fill="#A0A6B1"/>
</svg>
